<svg xmlns="http://www.w3.org/2000/svg" xmlns:xlink="http://www.w3.org/1999/xlink" preserveAspectRatio="xMidYMid" width="16" height="16" viewBox="0 0 16 16">
  <defs>
    <style>
      .cls-1 {
        fill: #f86060;
      }

      .cls-2 {
        fill: #f3f4f6;
        fill-rule: evenodd;
      }
    </style>
  </defs>
  <g>
    <circle cx="8" cy="8" r="7.016" class="cls-1"/>
    <path d="M8.414,7.094 L10.535,9.215 C10.926,9.606 10.926,10.239 10.535,10.629 C10.145,11.020 9.512,11.020 9.121,10.629 L7.000,8.508 L4.879,10.629 C4.488,11.020 3.855,11.020 3.464,10.629 C3.074,10.239 3.074,9.606 3.464,9.215 L5.586,7.094 L3.464,4.972 C3.074,4.582 3.074,3.949 3.464,3.558 C3.855,3.168 4.488,3.168 4.879,3.558 L7.000,5.679 L9.121,3.558 C9.512,3.168 10.145,3.168 10.535,3.558 C10.926,3.949 10.926,4.582 10.535,4.972 L8.414,7.094 Z" transform="translate(0.98 0.97)" class="cls-2"/>
  </g>
</svg>
