<?xml version="1.0" encoding="utf-8"?>
<!-- Generator: Adobe Illustrator 19.1.0, SVG Export Plug-In . SVG Version: 6.00 Build 0)  -->
<svg version="1.1" id="Layer_1" xmlns="http://www.w3.org/2000/svg" xmlns:xlink="http://www.w3.org/1999/xlink" x="0px" y="0px"
	 viewBox="0 0 58 75" style="enable-background:new 0 0 58 75;" xml:space="preserve">
<style type="text/css">
	.st0{clip-path:url(#SVGID_2_);}
	.st1{clip-path:url(#SVGID_4_);fill:url(#SVGID_5_);}
	.st2{filter:url(#Adobe_OpacityMaskFilter);}
	.st3{clip-path:url(#SVGID_7_);}
	.st4{enable-background:new    ;}
	.st5{clip-path:url(#SVGID_7_);fill-rule:evenodd;clip-rule:evenodd;fill:#FFFFFF;}
	.st6{opacity:0.2;clip-path:url(#SVGID_7_);mask:url(#SVGID_8_);}
	.st7{opacity:0.32;clip-path:url(#SVGID_7_);}
	.st8{clip-path:url(#SVGID_10_);fill-rule:evenodd;clip-rule:evenodd;fill:#FFFFFF;}
</style>
<g>
	<defs>
		<rect id="SVGID_1_" width="58" height="75"/>
	</defs>
	<clipPath id="SVGID_2_">
		<use xlink:href="#SVGID_1_"  style="overflow:visible;"/>
	</clipPath>
	<g class="st0">
		<defs>
			<path id="SVGID_3_" d="M2.2,0C0.7,0,0,1.2,0,2.7v57.2L15,75h40.3c1.5,0,2.7-1.2,2.7-2.7V2.7C58,1.2,56.8,0,55.3,0H2.2z"/>
		</defs>
		<clipPath id="SVGID_4_">
			<use xlink:href="#SVGID_3_"  style="overflow:visible;"/>
		</clipPath>
		
			<linearGradient id="SVGID_5_" gradientUnits="userSpaceOnUse" x1="0" y1="75.0703" x2="1" y2="75.0703" gradientTransform="matrix(-65.0611 -65.0611 -65.0611 65.0611 4945.603 -4814.1816)">
			<stop  offset="0" style="stop-color:#D7462B"/>
			<stop  offset="1" style="stop-color:#DC5335"/>
		</linearGradient>
		<polygon class="st1" points="29,104 -37.5,37.5 29,-29 95.5,37.5 		"/>
	</g>
	<g class="st0">
		<defs>
			<rect id="SVGID_6_" y="0" width="58" height="75"/>
		</defs>
		<clipPath id="SVGID_7_">
			<use xlink:href="#SVGID_6_"  style="overflow:visible;"/>
		</clipPath>
		<defs>
			<filter id="Adobe_OpacityMaskFilter" filterUnits="userSpaceOnUse">
				<feColorMatrix  type="matrix" values="1 0 0 0 0  0 1 0 0 0  0 0 1 0 0  0 0 0 1 0"/>
			</filter>
		</defs>
		<mask maskUnits="userSpaceOnUse" id="SVGID_8_">
			<g class="st2">
				<rect x="-47.4" y="-28.1" class="st3" width="155.7" height="122.7"/>
				<g class="st4">
					<path class="st5" d="M58,2.7v69.7c0,1.5-1.2,2.7-2.7,2.7H15L0,60V2.7c0-1.5,0.7-2.7,2.2-2.7h53.1C56.8,0.1,58,1.3,58,2.7"/>
				</g>
			</g>
		</mask>
		<g class="st6">
		</g>
		<g class="st7">
			<g>
				<defs>
					<rect id="SVGID_9_" y="59.9" width="15" height="15.1"/>
				</defs>
				<clipPath id="SVGID_10_">
					<use xlink:href="#SVGID_9_"  style="overflow:visible;"/>
				</clipPath>
				<polygon class="st8" points="15,59.9 0,59.9 15,75 				"/>
			</g>
		</g>
		<path class="st5" d="M37.1,38.7c-3.6-1.6-7.1-6-8.5-10.5c5.1-13.8,0.6-12.8-2.2-12.4C23.5,16.2,27,28.9,27,28.9s-3.5,9-6.6,13.5
			c-3,1.5-15,7.8-9.6,10.1c5.4,2.4,7.6-3.9,10.5-8.9c1.2-0.9,9.7-3,14.8-3.8c1.9,1.6,12.5,6.4,12.5,1.6S42.3,38.1,37.1,38.7
			 M13,50.8c-1.8-1.4,5.1-5.6,5.1-5.6S14.8,52.3,13,50.8 M28.1,17.3c2.8,0.8,0.5,6.3,0.1,7.5C28.2,24.8,25.3,16.5,28.1,17.3
			 M24.1,40.5c1.8-3.2,3.6-6.6,3.7-7.3c0,0,2.5,3.7,4.3,4.8C27.5,39.1,24.6,39.9,24.1,40.5 M39.7,39.5c0,0,6.7-0.9,7.3,1.5
			C47.6,43.4,41.9,41,39.7,39.5"/>
	</g>
</g>
</svg>
