<svg xmlns="http://www.w3.org/2000/svg" xmlns:xlink="http://www.w3.org/1999/xlink" preserveAspectRatio="xMidYMid" width="202.156" height="35.094" viewBox="0 0 202.156 35.094">
  <defs>
    <style>
      .cls-1 {
        fill: #e3426c;
        filter: url(#drop-shadow-1);
      }

      .cls-1, .cls-2 {
        fill-rule: evenodd;
      }

      .cls-2 {
        fill: #444;
      }
    </style>

    <filter id="drop-shadow-1" filterUnits="userSpaceOnUse">
      <feOffset dy="2" in="SourceAlpha"/>
      <feGaussianBlur result="dropBlur"/>
      <feFlood flood-opacity="0.22"/>
      <feComposite operator="in" in2="dropBlur" result="dropShadowComp"/>
      <feComposite in="SourceGraphic" result="shadowed"/>
    </filter>
  </defs>
  <g>
    <path d="M30.031,20.094 L24.000,20.094 C23.448,20.094 23.000,19.646 23.000,19.094 L23.000,13.000 C23.000,12.448 23.448,12.000 24.000,12.000 L30.031,12.000 C30.584,12.000 31.031,12.448 31.031,13.000 L31.031,19.094 C31.031,19.646 30.584,20.094 30.031,20.094 ZM30.031,7.094 L26.000,7.094 C25.448,7.094 25.000,6.646 25.000,6.094 L25.000,2.000 C25.000,1.448 25.448,1.000 26.000,1.000 L30.031,1.000 C30.584,1.000 31.031,1.448 31.031,2.000 L31.031,6.094 C31.031,6.646 30.584,7.094 30.031,7.094 ZM19.031,13.094 L13.000,13.094 C12.448,13.094 12.000,12.646 12.000,12.094 L12.000,6.000 C12.000,5.448 12.448,5.000 13.000,5.000 L19.031,5.000 C19.584,5.000 20.031,5.448 20.031,6.000 L20.031,12.094 C20.031,12.646 19.584,13.094 19.031,13.094 ZM16.031,19.000 L16.031,26.094 L23.000,26.094 C23.552,26.094 24.000,26.541 24.000,27.094 L24.000,33.094 C24.000,33.646 23.552,34.094 23.000,34.094 L7.031,34.094 L1.000,34.094 C0.448,34.094 0.000,33.646 0.000,33.094 L0.000,27.094 L0.000,11.000 C0.000,10.448 0.448,10.000 1.000,10.000 L7.031,10.000 C7.584,10.000 8.031,10.448 8.031,11.000 L8.031,18.000 L15.031,18.000 C15.584,18.000 16.031,18.448 16.031,19.000 Z" class="cls-1"/>
    <path d="M199.736,32.944 L199.736,21.513 C199.736,20.103 198.896,19.383 197.877,19.383 C196.859,19.383 196.049,20.103 196.049,21.513 L196.049,32.944 L193.622,32.944 L193.622,17.403 L195.959,17.403 L195.959,18.603 C196.169,18.243 196.589,17.853 196.918,17.643 C197.398,17.343 197.967,17.163 198.597,17.163 C199.765,17.163 200.575,17.553 201.234,18.303 C201.863,18.993 202.163,19.833 202.163,21.513 L202.163,32.944 L199.736,32.944 ZM186.658,33.184 C185.279,33.184 184.170,32.794 183.391,31.744 C182.432,30.514 182.252,28.324 182.252,25.173 C182.252,22.023 182.432,19.833 183.391,18.603 C184.170,17.553 185.279,17.163 186.658,17.163 C188.036,17.163 189.175,17.553 189.954,18.603 C190.913,19.833 191.063,22.023 191.063,25.173 C191.063,28.324 190.913,30.514 189.954,31.744 C189.175,32.794 188.036,33.184 186.658,33.184 ZM188.036,20.013 C187.737,19.593 187.227,19.353 186.658,19.353 C186.088,19.353 185.609,19.593 185.309,20.013 C184.740,20.793 184.680,22.383 184.680,25.173 C184.680,27.964 184.740,29.554 185.309,30.334 C185.609,30.754 186.088,30.994 186.658,30.994 C187.227,30.994 187.737,30.754 188.036,30.334 C188.606,29.554 188.636,27.964 188.636,25.173 C188.636,22.383 188.606,20.793 188.036,20.013 ZM177.143,11.823 L179.990,11.823 L179.990,14.643 L177.143,14.643 L177.143,11.823 ZM171.680,31.984 C170.811,31.264 170.332,30.124 170.332,28.504 L170.332,19.293 L168.564,19.293 L168.564,17.403 L170.332,17.403 L170.332,13.143 L172.759,13.143 L172.759,17.403 L175.157,17.403 L175.157,19.293 L172.759,19.293 L172.759,28.414 C172.759,30.064 173.628,30.754 175.247,30.754 L175.247,32.944 C173.868,32.944 172.669,32.824 171.680,31.984 ZM162.741,30.994 C163.281,30.994 163.760,30.784 164.060,30.424 C164.479,29.944 164.569,29.314 164.569,28.594 L166.997,28.594 C166.937,30.064 166.577,31.264 165.768,32.104 C165.019,32.854 163.970,33.184 162.711,33.184 C161.393,33.184 160.224,32.794 159.445,31.744 C158.486,30.514 158.306,28.294 158.306,25.173 C158.306,22.023 158.486,19.833 159.445,18.603 C160.224,17.553 161.393,17.163 162.711,17.163 C163.970,17.163 164.929,17.433 165.738,18.213 C166.697,19.113 166.937,20.403 166.997,21.723 L164.569,21.723 C164.569,21.093 164.509,20.433 164.090,19.923 C163.760,19.533 163.341,19.353 162.741,19.353 C162.172,19.353 161.662,19.593 161.363,20.013 C160.793,20.763 160.763,22.353 160.763,25.173 C160.763,27.964 160.793,29.554 161.363,30.334 C161.662,30.754 162.172,30.994 162.741,30.994 ZM153.541,31.564 C153.301,31.984 152.942,32.374 152.642,32.614 C152.163,32.974 151.653,33.184 150.814,33.184 C149.675,33.184 148.866,32.824 148.147,32.014 C147.547,31.324 147.158,30.154 147.158,28.534 C147.158,27.093 147.637,25.833 148.536,25.023 C149.316,24.333 150.215,23.973 151.833,23.973 L153.421,23.973 L153.421,21.513 C153.421,20.073 152.792,19.293 151.593,19.293 C151.054,19.293 150.694,19.503 150.395,19.803 C149.975,20.253 149.825,20.763 149.825,21.603 L147.398,21.603 C147.398,20.403 147.667,19.233 148.596,18.303 C149.286,17.613 150.395,17.163 151.593,17.163 C152.852,17.163 153.901,17.523 154.620,18.243 C155.369,19.023 155.849,20.073 155.849,21.663 L155.849,32.944 L153.541,32.944 L153.541,31.564 ZM153.421,25.743 L152.043,25.743 C151.294,25.743 150.784,25.863 150.305,26.313 C149.855,26.733 149.585,27.603 149.585,28.444 C149.585,30.064 150.215,31.054 151.473,31.054 C152.642,31.054 153.421,30.064 153.421,28.624 L153.421,25.743 ZM142.181,22.353 L142.181,32.944 L139.753,32.944 L139.753,17.403 L142.091,17.403 L142.091,19.053 C142.331,18.633 142.780,18.213 143.170,17.943 C143.889,17.433 144.728,17.163 145.717,17.163 L145.717,19.503 L144.998,19.503 C143.350,19.503 142.181,20.583 142.181,22.353 ZM134.081,31.984 C133.212,31.264 132.732,30.124 132.732,28.504 L132.732,19.293 L130.964,19.293 L130.964,17.403 L132.732,17.403 L132.732,13.143 L135.160,13.143 L135.160,17.403 L137.557,17.403 L137.557,19.293 L135.160,19.293 L135.160,28.414 C135.160,30.064 136.029,30.754 137.647,30.754 L137.647,32.944 C136.268,32.944 135.070,32.824 134.081,31.984 ZM126.910,32.944 L124.662,27.333 L122.415,32.944 L119.717,32.944 L123.254,25.023 L119.897,17.403 L122.594,17.403 L124.662,22.833 L126.730,17.403 L129.427,17.403 L126.011,25.023 L129.607,32.944 L126.910,32.944 ZM109.598,11.583 L117.839,11.583 L117.839,13.893 L112.175,13.893 L112.175,21.063 L117.060,21.063 L117.060,23.373 L112.175,23.373 L112.175,30.634 L117.839,30.634 L117.839,32.944 L109.598,32.944 L109.598,11.583 ZM97.911,31.984 C97.042,31.264 96.562,30.124 96.562,28.504 L96.562,19.293 L94.794,19.293 L94.794,17.403 L96.562,17.403 L96.562,13.143 L98.990,13.143 L98.990,17.403 L101.387,17.403 L101.387,19.293 L98.990,19.293 L98.990,28.414 C98.990,30.064 99.859,30.754 101.477,30.754 L101.477,32.944 C100.099,32.944 98.900,32.824 97.911,31.984 ZM90.608,31.564 C90.368,31.984 90.009,32.374 89.709,32.614 C89.229,32.974 88.720,33.184 87.881,33.184 C86.742,33.184 85.933,32.824 85.214,32.014 C84.614,31.324 84.225,30.154 84.225,28.534 C84.225,27.093 84.704,25.833 85.603,25.023 C86.382,24.333 87.281,23.973 88.900,23.973 L90.488,23.973 L90.488,21.513 C90.488,20.073 89.859,19.293 88.660,19.293 C88.120,19.293 87.761,19.503 87.461,19.803 C87.042,20.253 86.892,20.763 86.892,21.603 L84.464,21.603 C84.464,20.403 84.734,19.233 85.663,18.303 C86.352,17.613 87.461,17.163 88.660,17.163 C89.919,17.163 90.968,17.523 91.687,18.243 C92.436,19.023 92.915,20.073 92.915,21.663 L92.915,32.944 L90.608,32.944 L90.608,31.564 ZM90.488,25.743 L89.109,25.743 C88.360,25.743 87.851,25.863 87.371,26.313 C86.922,26.733 86.652,27.603 86.652,28.444 C86.652,30.064 87.281,31.054 88.540,31.054 C89.709,31.054 90.488,30.064 90.488,28.624 L90.488,25.743 ZM76.493,30.334 C76.763,30.724 77.242,30.994 77.872,30.994 C78.411,30.994 78.861,30.844 79.250,30.394 C79.640,29.944 79.760,29.344 79.760,28.594 L82.187,28.594 C82.157,30.034 81.798,31.114 80.929,32.044 C80.179,32.824 79.130,33.184 77.872,33.184 C76.553,33.184 75.594,32.854 74.785,31.984 C73.616,30.754 73.406,28.414 73.406,25.173 C73.406,21.903 73.616,19.593 74.755,18.363 C75.564,17.493 76.553,17.163 77.812,17.163 C79.071,17.163 80.060,17.493 80.869,18.363 C82.037,19.593 82.247,21.903 82.247,25.743 L75.864,25.743 C75.864,28.204 75.954,29.644 76.493,30.334 ZM79.790,23.913 C79.790,21.663 79.670,20.553 79.190,19.983 C78.891,19.593 78.471,19.353 77.812,19.353 C77.153,19.353 76.763,19.593 76.463,19.983 C75.984,20.553 75.864,21.663 75.864,23.913 L79.790,23.913 ZM68.345,22.353 L68.345,32.944 L65.918,32.944 L65.918,17.403 L68.256,17.403 L68.256,19.053 C68.495,18.633 68.945,18.213 69.334,17.943 C70.054,17.433 70.893,17.163 71.882,17.163 L71.882,19.503 L71.162,19.503 C69.514,19.503 68.345,20.583 68.345,22.353 ZM60.641,21.513 C60.641,20.073 59.802,19.353 58.783,19.353 C57.764,19.353 56.955,20.073 56.955,21.513 L56.955,32.944 L54.528,32.944 L54.528,11.583 L56.955,11.583 L56.955,18.513 C57.165,18.183 57.525,17.823 57.824,17.643 C58.304,17.343 58.873,17.163 59.502,17.163 C60.671,17.163 61.480,17.553 62.140,18.303 C62.769,18.993 63.069,19.833 63.069,21.513 L63.069,32.944 L60.641,32.944 L60.641,21.513 ZM48.741,32.944 L46.164,32.944 L46.164,13.893 L42.568,13.893 L42.568,11.583 L52.308,11.583 L52.308,13.893 L48.741,13.893 L48.741,32.944 ZM179.780,32.944 L177.353,32.944 L177.353,17.403 L179.780,17.403 L179.780,32.944 Z" class="cls-2"/>
  </g>
</svg>
