<?xml version="1.0" encoding="utf-8"?>
<!-- Generator: Adobe Illustrator 19.1.0, SVG Export Plug-In . SVG Version: 6.00 Build 0)  -->
<svg version="1.1" id="Layer_1" xmlns="http://www.w3.org/2000/svg" xmlns:xlink="http://www.w3.org/1999/xlink" x="0px" y="0px"
	 viewBox="0 0 58 75" style="enable-background:new 0 0 58 75;" xml:space="preserve">
<style type="text/css">
	.st0{clip-path:url(#SVGID_2_);}
	.st1{clip-path:url(#SVGID_4_);fill:url(#SVGID_5_);}
	.st2{filter:url(#Adobe_OpacityMaskFilter);}
	.st3{clip-path:url(#SVGID_7_);}
	.st4{enable-background:new    ;}
	.st5{clip-path:url(#SVGID_7_);fill-rule:evenodd;clip-rule:evenodd;fill:#FFFFFF;}
	.st6{opacity:0.27;clip-path:url(#SVGID_7_);mask:url(#SVGID_8_);}
	.st7{opacity:0.32;clip-path:url(#SVGID_7_);}
	.st8{clip-path:url(#SVGID_10_);fill-rule:evenodd;clip-rule:evenodd;fill:#FFFFFF;}
	.st9{fill:#FFFFFF;}
	.st10{font-family:'Helvetica85-Heavy';}
	.st11{font-size:40.4238px;}
</style>
<g>
	<defs>
		<rect id="SVGID_1_" width="58" height="75"/>
	</defs>
	<clipPath id="SVGID_2_">
		<use xlink:href="#SVGID_1_"  style="overflow:visible;"/>
	</clipPath>
	<g class="st0">
		<defs>
			<path id="SVGID_3_" d="M2.2,0C0.7,0,0,1.2,0,2.7v57.2L15,75h40.3c1.5,0,2.7-1.2,2.7-2.7V2.7C58,1.2,56.8,0,55.3,0H2.2z"/>
		</defs>
		<clipPath id="SVGID_4_">
			<use xlink:href="#SVGID_3_"  style="overflow:visible;"/>
		</clipPath>
		
			<linearGradient id="SVGID_5_" gradientUnits="userSpaceOnUse" x1="0" y1="75.0186" x2="1" y2="75.0186" gradientTransform="matrix(57.9719 0 0 -57.9719 0 4386.48)">
			<stop  offset="0" style="stop-color:#3CA914"/>
			<stop  offset="1" style="stop-color:#35990E"/>
		</linearGradient>
		<rect y="0" class="st1" width="58" height="75"/>
	</g>
	<g class="st0">
		<defs>
			<rect id="SVGID_6_" y="0" width="58" height="75"/>
		</defs>
		<clipPath id="SVGID_7_">
			<use xlink:href="#SVGID_6_"  style="overflow:visible;"/>
		</clipPath>
		<defs>
			<filter id="Adobe_OpacityMaskFilter" filterUnits="userSpaceOnUse">
				<feColorMatrix  type="matrix" values="1 0 0 0 0  0 1 0 0 0  0 0 1 0 0  0 0 0 1 0"/>
			</filter>
		</defs>
		<mask maskUnits="userSpaceOnUse" id="SVGID_8_">
			<g class="st2">
				<rect x="-46.4" y="-28.1" class="st3" width="155.7" height="122.7"/>
				<g class="st4">
					<path class="st5" d="M59,2.7v69.7c0,1.5-1.2,2.7-2.7,2.7H16.1L1,60V2.7c0-1.5,0.7-2.7,2.2-2.7h53.1C57.8,0.1,59,1.3,59,2.7"/>
				</g>
			</g>
		</mask>
		<g class="st6">
		</g>
		<g class="st7">
			<g>
				<defs>
					<rect id="SVGID_9_" y="59.9" width="15" height="15.1"/>
				</defs>
				<clipPath id="SVGID_10_">
					<use xlink:href="#SVGID_9_"  style="overflow:visible;"/>
				</clipPath>
				<polygon class="st8" points="15,59.9 0,59.9 15,75 				"/>
			</g>
		</g>
	</g>
	<g class="st0">
		<text transform="matrix(1 0 0 1 15.5015 49.8243)" class="st9 st10 st11">X</text>
	</g>
</g>
</svg>
